<svg id="visual" viewBox="0 0 900 600" width="900" height="600" xmlns="http://www.w3.org/2000/svg" xmlns:xlink="http://www.w3.org/1999/xlink" version="1.1"><path d="M0 109L16.7 105.7C33.3 102.3 66.7 95.7 100 88.2C133.3 80.7 166.7 72.3 200 75.7C233.3 79 266.7 94 300 102.3C333.3 110.7 366.7 112.3 400 113.2C433.3 114 466.7 114 500 113.5C533.3 113 566.7 112 600 107.2C633.3 102.3 666.7 93.7 700 89.5C733.3 85.3 766.7 85.7 800 81.7C833.3 77.7 866.7 69.3 883.3 65.2L900 61L900 0L883.3 0C866.7 0 833.3 0 800 0C766.7 0 733.3 0 700 0C666.7 0 633.3 0 600 0C566.7 0 533.3 0 500 0C466.7 0 433.3 0 400 0C366.7 0 333.3 0 300 0C266.7 0 233.3 0 200 0C166.7 0 133.3 0 100 0C66.7 0 33.3 0 16.7 0L0 0Z" fill="#64b4b0"></path><path d="M0 56L16.7 55.8C33.3 55.7 66.7 55.3 100 57.7C133.3 60 166.7 65 200 69.3C233.3 73.7 266.7 77.3 300 78C333.3 78.7 366.7 76.3 400 71.2C433.3 66 466.7 58 500 52.5C533.3 47 566.7 44 600 44.3C633.3 44.7 666.7 48.3 700 56.3C733.3 64.3 766.7 76.7 800 82.5C833.3 88.3 866.7 87.7 883.3 87.3L900 87L900 0L883.3 0C866.7 0 833.3 0 800 0C766.7 0 733.3 0 700 0C666.7 0 633.3 0 600 0C566.7 0 533.3 0 500 0C466.7 0 433.3 0 400 0C366.7 0 333.3 0 300 0C266.7 0 233.3 0 200 0C166.7 0 133.3 0 100 0C66.7 0 33.3 0 16.7 0L0 0Z" fill="#72c1bd"></path><path d="M0 45L16.7 47.2C33.3 49.3 66.7 53.7 100 50.2C133.3 46.7 166.7 35.3 200 34.5C233.3 33.7 266.7 43.3 300 43C333.3 42.7 366.7 32.3 400 31.5C433.3 30.7 466.7 39.3 500 46.8C533.3 54.3 566.7 60.7 600 58.2C633.3 55.7 666.7 44.3 700 43.5C733.3 42.7 766.7 52.3 800 53.2C833.3 54 866.7 46 883.3 42L900 38L900 0L883.3 0C866.7 0 833.3 0 800 0C766.7 0 733.3 0 700 0C666.7 0 633.3 0 600 0C566.7 0 533.3 0 500 0C466.7 0 433.3 0 400 0C366.7 0 333.3 0 300 0C266.7 0 233.3 0 200 0C166.7 0 133.3 0 100 0C66.7 0 33.3 0 16.7 0L0 0Z" fill="#80ceca"></path><path d="M0 33L16.7 34.8C33.3 36.7 66.7 40.3 100 41.2C133.3 42 166.7 40 200 40C233.3 40 266.7 42 300 37C333.3 32 366.7 20 400 20C433.3 20 466.7 32 500 33C533.3 34 566.7 24 600 22.8C633.3 21.7 666.7 29.3 700 30C733.3 30.7 766.7 24.3 800 24.7C833.3 25 866.7 32 883.3 35.5L900 39L900 0L883.3 0C866.7 0 833.3 0 800 0C766.7 0 733.3 0 700 0C666.7 0 633.3 0 600 0C566.7 0 533.3 0 500 0C466.7 0 433.3 0 400 0C366.7 0 333.3 0 300 0C266.7 0 233.3 0 200 0C166.7 0 133.3 0 100 0C66.7 0 33.3 0 16.7 0L0 0Z" fill="#8edbd7"></path></svg>